<?xml version="1.0" encoding="utf-8"?>
<!-- Generator: Adobe Illustrator 24.0.0, SVG Export Plug-In . SVG Version: 6.00 Build 0)  -->
<svg version="1.1" id="Слой_1" xmlns="http://www.w3.org/2000/svg" xmlns:xlink="http://www.w3.org/1999/xlink" x="0px" y="0px"
	 viewBox="0 0 1366 528.04" style="enable-background:new 0 0 1366 528.04;" xml:space="preserve">
<style type="text/css">
	.st0{fill:#9E64AA;stroke:#231449;stroke-width:2.9343;stroke-linecap:round;stroke-linejoin:round;stroke-miterlimit:10;}
	.st1{fill:#231449;stroke:#231449;stroke-width:2.9343;stroke-linecap:round;stroke-linejoin:round;stroke-miterlimit:10;}
</style>
<g>
	<path class="st0" d="M-4.36,76.53c19.9-18.16,51.34-40.76,88.46-38.74c56.98,3.11,64.1,60.97,116.73,77.34
		c97.92,30.47,180.3-136.31,307.91-111.06c47.63,9.42,78.09,40.95,84.53,47.9c74.59,80.52,8.75,192.25,63.39,235.01
		c47.77,37.39,109.77-38.88,254.58-35.01c110.73,2.96,134.86,49.17,232.45,47.22c94.89-1.9,171.79-47.58,223.39-87.76
		c-0.41,104.99-0.82,209.98-1.23,314.96c-453.67-0.09-907.35-0.17-1361.02-0.26C1.77,376.28-1.29,226.4-4.36,76.53z"/>
	<path class="st1" d="M0.37,172.32c32.16-33.61,78.17-71.15,122.71-61.63c34.29,7.33,37.44,36.39,68.43,53.55
		c86.73,48.02,196.06-100.03,289.8-67.43c88.29,30.7,54.97,184.16,158.99,232.03c64.66,29.76,91.36-23.18,207.29-21.81
		c168.48,1.99,222.21,115.1,366.28,101.14c68.93-6.68,122.17-38.93,154.96-63.46c-0.99,60.57-1.98,121.14-2.97,181.7
		c-454.98,0.06-909.96,0.11-1364.94,0.17C0.74,408.49,0.55,290.4,0.37,172.32z"/>
</g>
</svg>
