<svg width="51" height="51" viewBox="0 0 51 51" fill="none" xmlns="http://www.w3.org/2000/svg">
<path d="M24.2245 46.5872C24.2245 45.5814 24.2564 44.572 24.2174 43.5698C24.1535 41.9075 23.9513 40.2594 23.4475 38.6678C23.2985 38.1984 23.0891 37.7325 22.8266 37.3161C22.4327 36.6914 22.0176 36.6315 21.4073 37.0479C20.7616 37.4926 20.2542 38.0819 19.8604 38.7419C19.243 39.7759 18.686 40.8417 18.1147 41.9005C17.8663 42.3557 17.6499 42.8286 17.4122 43.2909C17.2525 43.6015 16.9864 43.718 16.7274 43.6121C16.4507 43.4992 16.362 43.2557 16.44 42.9098C16.6706 41.9216 16.9438 40.937 17.1 39.9383C17.2064 39.2501 17.2064 38.5301 17.1425 37.8349C17.0042 36.3138 16.0284 35.4315 14.4921 35.3221C12.7926 35.1986 11.164 35.5657 9.58513 36.1197C7.86431 36.7197 6.18607 37.4326 4.48654 38.096C4.27366 38.1807 4.06077 38.2725 3.84434 38.3431C3.4647 38.4666 3.15247 38.3678 3.02474 38.1031C2.9041 37.849 2.9999 37.5384 3.32632 37.3373C3.87627 36.9985 4.44397 36.695 5.00811 36.3809C7.15825 35.188 9.35451 34.0658 11.2634 32.4988C12.0546 31.8495 12.7819 31.1119 13.4951 30.3743C13.7612 30.099 13.928 29.7179 14.0805 29.3579C14.2509 28.9556 14.1267 28.6662 13.7577 28.4227C13.2184 28.0698 12.601 27.9639 11.9836 27.8545C10.8305 27.6498 9.67738 27.7521 8.52071 27.8262C7.68691 27.8792 6.85666 27.9356 6.02286 27.9745C5.6787 27.9921 5.47646 27.8192 5.44098 27.5369C5.4055 27.2439 5.54387 27.0534 5.87384 26.951C5.96254 26.9228 6.05479 26.9051 6.14704 26.8804C6.82828 26.6828 7.51305 26.5063 8.18719 26.284C9.04228 26.0017 9.85833 25.6311 10.5857 25.0947C11.3663 24.5194 11.9623 23.8136 11.8772 22.7866C11.8346 22.3031 11.682 21.8055 11.4727 21.3644C10.8092 19.9845 9.80156 18.8516 8.64489 17.8741C7.08728 16.5577 5.46581 15.319 3.87627 14.0449C3.71306 13.9144 3.5534 13.7803 3.42212 13.6214C3.26246 13.4273 3.25536 13.1909 3.40083 12.9827C3.5463 12.7744 3.76983 12.6897 4.00755 12.7815C4.2985 12.8944 4.57879 13.0356 4.8449 13.1909C6.56572 14.1896 8.2546 15.2413 10.0038 16.1871C11.6182 17.0588 13.3106 17.7788 15.1379 18.1035C15.5317 18.174 15.9504 18.1917 16.3478 18.1564C17.0219 18.0929 17.3199 17.7364 17.1816 17.0729C17.0396 16.3883 16.8268 15.7072 16.5607 15.0613C16.0107 13.7167 15.0776 12.5909 14.3076 11.3698C14.1586 11.1334 13.9954 10.904 13.8428 10.6676C13.5945 10.2899 13.6016 10.0076 13.857 9.8135C14.1125 9.61939 14.3608 9.70762 14.6979 10.0182C15.482 10.7452 16.2555 11.4898 17.0964 12.1533C17.6038 12.5521 18.1999 12.8662 18.7995 13.1168C20.0697 13.6461 21.1057 13.3568 21.9821 12.2945C22.5534 11.6028 22.9224 10.8052 23.2275 9.97231C23.8874 8.15833 24.2139 6.26671 24.4835 4.3645C24.6183 3.41163 24.7319 2.45171 24.8596 1.49531C24.8738 1.38237 24.8986 1.26944 24.9412 1.16357C25.037 0.923586 25.2002 0.757716 25.4805 0.771833C25.7502 0.789479 25.9631 0.937703 25.9808 1.20239C26.0198 1.78823 26.0234 2.38112 26.0163 2.97049C25.9772 5.98791 25.8176 9.01238 26.5024 11.9874C26.6691 12.7109 26.8997 13.4344 27.212 14.1049C27.6981 15.1425 28.3119 15.2272 29.1634 14.4437C30.0185 13.6603 30.6572 12.7145 31.1894 11.6981C31.7287 10.6676 32.2361 9.62292 32.7612 8.58536C32.8179 8.47595 32.8641 8.3242 32.9599 8.27832C33.1231 8.19715 33.3466 8.10539 33.4956 8.16186C33.6411 8.2148 33.7653 8.43007 33.815 8.59594C33.854 8.72652 33.783 8.89945 33.7404 9.04767C33.3643 10.3252 33.0486 11.6169 33.0557 12.958C33.0592 13.5226 33.1231 14.1014 33.265 14.6449C33.4885 15.5025 34.0917 16.0424 34.9503 16.2859C35.9899 16.5824 37.0402 16.4906 38.0833 16.3071C40.0454 15.9577 41.9046 15.2837 43.7389 14.5214C44.4876 14.2108 45.2362 13.8897 45.9884 13.5791C46.18 13.4979 46.3751 13.4203 46.5774 13.3744C46.847 13.3109 47.0777 13.4026 47.2125 13.6532C47.3438 13.9002 47.2764 14.1332 47.0777 14.299C46.8648 14.479 46.6271 14.6343 46.3822 14.7719C44.7395 15.6966 43.0719 16.5789 41.454 17.5459C39.8964 18.4775 38.4275 19.5469 37.1892 20.8844C36.845 21.255 36.5399 21.6749 36.2951 22.1126C35.919 22.7831 36.0786 23.1819 36.7811 23.5101C37.4908 23.8418 38.2607 23.9759 39.0306 23.9865C40.1234 24.0042 41.2162 23.9442 42.3091 23.9054C42.9229 23.8842 43.5367 23.8313 44.1505 23.8065C44.5656 23.7889 44.7856 23.9477 44.8246 24.2512C44.8601 24.5336 44.6543 24.7347 44.2676 24.8512C43.2706 25.1547 42.2594 25.4158 41.2943 25.8005C40.6344 26.0617 40.0028 26.4393 39.4387 26.8734C38.3352 27.7204 38.0904 28.8038 38.6226 30.092C38.988 30.9778 39.5486 31.7365 40.1731 32.4529C41.4185 33.8787 42.8767 35.068 44.374 36.215C45.0446 36.7267 45.7223 37.2279 46.3929 37.7396C46.5242 37.8384 46.6483 37.9514 46.7654 38.0713C46.9712 38.2796 47.028 38.516 46.8648 38.7772C46.7051 39.0277 46.4568 39.063 46.2013 38.9819C45.9849 38.9113 45.7791 38.8019 45.5839 38.6854C44.6792 38.149 43.785 37.5949 42.8803 37.062C41.1559 36.0456 39.4245 35.0469 37.5298 34.3622C36.4405 33.967 35.3513 33.5717 34.1662 33.5929C33.9924 33.5964 33.8114 33.6176 33.6411 33.6634C33.2366 33.7764 33.077 33.9917 33.0628 34.4081C33.0308 35.2798 33.3785 36.0491 33.7262 36.815C34.3614 38.216 35.33 39.4089 36.1389 40.7006C36.2276 40.8417 36.3234 40.9758 36.4157 41.117C36.6428 41.4664 36.6392 41.7664 36.398 41.9534C36.1567 42.144 35.8728 42.0699 35.5748 41.784C34.8829 41.1241 34.2123 40.4323 33.4601 39.8465C32.8499 39.3736 32.1651 38.9677 31.4555 38.6572C30.2172 38.1137 29.1954 38.3925 28.3154 39.416C27.6023 40.2418 27.1978 41.2335 26.8572 42.2534C26.2788 43.9827 25.9879 45.7755 25.7395 47.5753C25.6082 48.5211 25.4983 49.4669 25.3599 50.4092C25.3031 50.808 25.0547 51.0198 24.7532 50.9986C24.4516 50.9774 24.2316 50.7304 24.2316 50.3351C24.228 49.4634 24.2529 48.5952 24.26 47.7236C24.2635 47.3495 24.26 46.9754 24.26 46.6048C24.2387 46.5872 24.2316 46.5872 24.2245 46.5872ZM33.3643 26.0334C33.4779 21.442 29.7808 17.8211 25.4486 17.7047C20.3748 17.567 17.0716 21.3432 16.848 25.2359C16.5536 30.3813 20.4777 33.9281 24.7851 34.0552C29.8234 34.2034 33.4318 30.2472 33.3643 26.0334Z" fill="#FFB500"/>
<path d="M2.10922 22.1654C0.984476 22.1548 0.0513317 21.2055 0.0761682 20.1009C0.101005 19.0033 1.01996 18.0963 2.10567 18.0928C3.23396 18.0893 4.17065 19.0139 4.17065 20.1256C4.1671 21.2443 3.22331 22.176 2.10922 22.1654Z" fill="#FFB500"/>
<path d="M48.0072 33.5785C46.8931 33.582 46.006 32.7032 45.9954 31.588C45.9883 30.4446 46.8789 29.5376 48.0178 29.5305C49.1355 29.527 50.0615 30.4305 50.0721 31.5351C50.0828 32.6821 49.1816 33.5749 48.0072 33.5785Z" fill="#FFB500"/>
<path d="M33.6305 48.5106C33.6199 49.6505 32.7186 50.5222 31.5584 50.5081C30.4443 50.4939 29.536 49.5658 29.5502 48.4576C29.5644 47.3389 30.4975 46.446 31.64 46.4601C32.7683 46.4742 33.6411 47.3742 33.6305 48.5106Z" fill="#FFB500"/>
<path d="M18.5724 1.19165C19.7007 1.19165 20.5913 2.08452 20.5877 3.21032C20.5842 4.322 19.6759 5.23252 18.5618 5.23958C17.437 5.24664 16.5145 4.32553 16.5181 3.19973C16.5181 2.05629 17.4051 1.19165 18.5724 1.19165Z" fill="#FFB500"/>
<path d="M39.4812 8.84996C39.4848 7.73122 40.3931 6.8207 41.5036 6.82423C42.6284 6.82423 43.558 7.75239 43.558 8.8676C43.5544 9.97575 42.6035 10.9074 41.4859 10.8933C40.3718 10.8792 39.4777 9.9687 39.4812 8.84996Z" fill="#FFB500"/>
<path d="M8.63057 44.8545C7.49518 44.8545 6.61171 43.9722 6.60816 42.8393C6.60462 41.7029 7.51292 40.796 8.64831 40.803C9.76595 40.8101 10.6814 41.7135 10.6885 42.8252C10.6991 43.9369 9.76595 44.8545 8.63057 44.8545Z" fill="#FFB500"/>
<path d="M30.9978 25.8639C31.0014 29.1213 28.3439 31.7858 25.0654 31.7576C21.6628 31.7294 19.1401 29.019 19.1472 25.8463C19.1543 22.5924 21.8047 19.9526 25.0867 19.9456C28.3474 19.9385 30.9943 22.5854 30.9978 25.8639Z" fill="#FFB500"/>
<path opacity="0.51" d="M24.2208 46.5589C24.2208 45.553 24.2528 44.5437 24.2137 43.5414C24.1499 41.8792 23.9476 40.2311 23.4438 38.6395C23.2948 38.1701 23.0855 37.7042 22.8229 37.2878C22.4291 36.6631 22.0139 36.6031 21.4037 37.0196C20.7579 37.4642 20.2505 38.0536 19.8567 38.7136C19.2393 39.7476 18.6823 40.8134 18.111 41.8721C17.8627 42.3274 17.6462 42.8003 17.4085 43.2626C17.2489 43.5732 16.9828 43.6897 16.7237 43.5838C16.447 43.4709 16.3583 43.2273 16.4364 42.8815C16.667 41.8933 16.9402 40.9087 17.0963 39.9099C17.2027 39.2218 17.2027 38.5018 17.1389 37.8066C17.0005 36.2855 16.0248 35.4032 14.4885 35.2938C12.7889 35.1703 11.1604 35.5373 9.58147 36.0914C7.86065 36.6914 6.18241 37.4043 4.48288 38.0677C4.27 38.1524 4.05711 38.2442 3.84068 38.3148C3.46103 38.4383 3.1488 38.3395 3.02107 38.0748C2.90044 37.8207 2.99624 37.5101 3.32266 37.309C3.87261 36.9702 4.4403 36.6667 5.00445 36.3526C7.15458 35.1597 9.35084 34.0375 11.2597 32.4705C12.0509 31.8211 12.7783 31.0836 13.4915 30.346C13.7576 30.0707 13.9243 29.6895 14.0769 29.3296C14.2472 28.9273 14.123 28.6379 13.754 28.3944C13.2147 28.0414 12.5973 27.9356 11.98 27.8262C10.8268 27.6215 9.67372 27.7238 8.51705 27.7979C7.68325 27.8509 6.853 27.9073 6.0192 27.9462C5.67504 27.9638 5.4728 27.7909 5.43731 27.5085C5.40183 27.2156 5.54021 27.025 5.87018 26.9227C5.95888 26.8945 6.05113 26.8768 6.14338 26.8521C6.82461 26.6545 7.50939 26.478 8.18353 26.2557C9.03861 25.9734 9.85467 25.6028 10.582 25.0664C11.3626 24.4911 11.9587 23.7853 11.8735 22.7583C11.8309 22.2748 11.6784 21.7772 11.469 21.3361C10.8056 19.9562 9.7979 18.8233 8.64123 17.8457C7.08362 16.5294 5.46215 15.2906 3.87261 14.0166C3.7094 13.886 3.54974 13.7519 3.41846 13.5931C3.25879 13.399 3.2517 13.1626 3.39717 12.9543C3.54264 12.7461 3.76617 12.6614 4.00389 12.7532C4.29483 12.8661 4.57513 13.0073 4.84124 13.1626C6.56205 14.1613 8.25094 15.213 10.0001 16.1588C11.6145 17.0305 13.307 17.7505 15.1342 18.0751C15.528 18.1457 15.9467 18.1634 16.3441 18.1281C17.0182 18.0645 17.3163 17.7081 17.1779 17.0446C17.036 16.36 16.8231 15.6788 16.557 15.033C16.007 13.6884 15.0739 12.5626 14.304 11.3415C14.1549 11.1051 13.9917 10.8757 13.8392 10.6392C13.5908 10.2616 13.5979 9.97928 13.8534 9.78518C14.1088 9.59108 14.3572 9.6793 14.6942 9.98987C15.4784 10.7169 16.2519 11.4615 17.0927 12.125C17.6001 12.5238 18.1962 12.8379 18.7958 13.0885C20.066 13.6178 21.1021 13.3284 21.9785 12.2662C22.5497 11.5745 22.9187 10.7769 23.2238 9.94399C23.8838 8.13001 24.2102 6.23839 24.4798 4.33618C24.6147 3.38331 24.7282 2.42338 24.8559 1.46699C24.8701 1.35405 24.895 1.24112 24.9375 1.13525C25.0333 0.895266 25.1966 0.729396 25.4769 0.743513C25.7465 0.761158 25.9594 0.909382 25.9771 1.17407C26.0162 1.75991 26.0197 2.3528 26.0126 2.94217C25.9736 5.95959 25.8139 8.98406 26.4987 11.9591C26.6655 12.6826 26.8961 13.4061 27.2083 14.0766C27.6944 15.1142 28.3082 15.1989 29.1598 14.4154C30.0148 13.6319 30.6535 12.6861 31.1857 11.6697C31.725 10.6392 32.2324 9.5946 32.7575 8.55704C32.8143 8.44763 32.8604 8.29588 32.9562 8.25C33.1194 8.16883 33.3429 8.07707 33.492 8.13354C33.6374 8.18648 33.7616 8.40175 33.8113 8.56762C33.8503 8.6982 33.7794 8.87113 33.7368 9.01935C33.3607 10.2969 33.0449 11.5886 33.052 12.9296C33.0555 13.4943 33.1194 14.0731 33.2613 14.6166C33.4849 15.4742 34.088 16.0141 34.9467 16.2576C35.9863 16.5541 37.0365 16.4623 38.0796 16.2788C40.0417 15.9294 41.9009 15.2554 43.7353 14.4931C44.4839 14.1825 45.2326 13.8613 45.9847 13.5508C46.1763 13.4696 46.3715 13.392 46.5737 13.3461C46.8434 13.2826 47.074 13.3743 47.2088 13.6249C47.3401 13.8719 47.2727 14.1049 47.074 14.2707C46.8611 14.4507 46.6234 14.606 46.3786 14.7436C44.7358 15.6683 43.0682 16.5505 41.4503 17.5175C39.8927 18.4492 38.4238 19.5186 37.1855 20.8561C36.8413 21.2267 36.5362 21.6466 36.2914 22.0842C35.9153 22.7548 36.075 23.1536 36.7775 23.4818C37.4871 23.8135 38.257 23.9476 39.027 23.9582C40.1198 23.9759 41.2126 23.9159 42.3054 23.877C42.9192 23.8559 43.533 23.8029 44.1468 23.7782C44.562 23.7606 44.7819 23.9194 44.821 24.2229C44.8565 24.5052 44.6507 24.7064 44.2639 24.8229C43.2669 25.1264 42.2557 25.3875 41.2906 25.7722C40.6307 26.0334 39.9991 26.411 39.435 26.8451C38.3315 27.6921 38.0867 28.7755 38.6189 30.0636C38.9844 30.9495 39.545 31.7082 40.1694 32.4246C41.4148 33.8504 42.8731 35.0397 44.3704 36.1867C45.041 36.6984 45.7186 37.1996 46.3892 37.7113C46.5205 37.8101 46.6447 37.923 46.7618 38.043C46.9676 38.2512 47.0243 38.4877 46.8611 38.7489C46.7015 38.9994 46.4531 39.0347 46.1976 38.9535C45.9812 38.883 45.7754 38.7736 45.5803 38.6571C44.6755 38.1207 43.7814 37.5666 42.8766 37.0337C41.1523 36.0173 39.4208 35.0186 37.5261 34.3339C36.4369 33.9386 35.3476 33.5434 34.1626 33.5645C33.9887 33.5681 33.8077 33.5892 33.6374 33.6351C33.233 33.7481 33.0733 33.9633 33.0591 34.3798C33.0272 35.2515 33.3749 36.0208 33.7226 36.7867C34.3577 38.1877 35.3263 39.3806 36.1353 40.6722C36.224 40.8134 36.3198 40.9475 36.412 41.0887C36.6391 41.4381 36.6356 41.738 36.3943 41.9251C36.153 42.1157 35.8692 42.0415 35.5711 41.7557C34.8793 41.0957 34.2087 40.404 33.4565 39.8182C32.8462 39.3453 32.1614 38.9394 31.4518 38.6289C30.2135 38.0854 29.1917 38.3642 28.3118 39.3876C27.5986 40.2135 27.1941 41.2051 26.8535 42.2251C26.2752 43.9543 25.9842 45.7471 25.7359 47.547C25.6046 48.4928 25.4946 49.4386 25.3562 50.3809C25.2995 50.7797 25.0511 50.9915 24.7495 50.9703C24.4479 50.9491 24.2279 50.7021 24.2279 50.3068C24.2244 49.4351 24.2492 48.5669 24.2563 47.6952C24.2599 47.3211 24.2563 46.9471 24.2563 46.5765C24.2386 46.5588 24.2279 46.5589 24.2208 46.5589ZM33.3607 26.0051C33.4742 21.4137 29.7771 17.7928 25.4449 17.6763C20.3747 17.5422 17.0679 21.3184 16.8444 25.2075C16.5499 30.353 20.4776 33.8998 24.785 34.0269C29.8233 34.1786 33.4281 30.2224 33.3607 26.0051Z" fill="#EA991D"/>
<path opacity="0.51" d="M2.1058 22.1373C0.981058 22.1268 0.0479137 21.1774 0.0727502 20.0728C0.0975868 18.9752 1.01654 18.0682 2.10225 18.0647C3.23054 18.0612 4.16723 18.9858 4.16723 20.0975C4.16723 21.2162 3.22344 22.1515 2.1058 22.1373Z" fill="#EA991D"/>
<path opacity="0.51" d="M48.0072 33.554C46.8931 33.5576 46.006 32.6788 45.9954 31.5636C45.9883 30.4202 46.8789 29.5132 48.0178 29.5061C49.1355 29.5026 50.0615 30.406 50.0721 31.5107C50.0828 32.6576 49.1816 33.547 48.0072 33.554Z" fill="#EA991D"/>
<path opacity="0.51" d="M33.6305 48.4859C33.6199 49.6258 32.7186 50.4975 31.5584 50.4834C30.4443 50.4693 29.536 49.5411 29.5502 48.433C29.5644 47.3142 30.4975 46.4214 31.64 46.4355C32.7648 46.4496 33.6376 47.3495 33.6305 48.4859Z" fill="#EA991D"/>
<path opacity="0.51" d="M18.569 1.16724C19.6973 1.16724 20.5879 2.06011 20.5843 3.18591C20.5808 4.29759 19.6724 5.20811 18.5584 5.21516C17.4336 5.22222 16.5111 4.30112 16.5147 3.17532C16.5182 2.03188 17.4052 1.16724 18.569 1.16724Z" fill="#EA991D"/>
<path opacity="0.51" d="M39.4812 8.82164C39.4848 7.7029 40.3931 6.79238 41.5036 6.79591C42.6284 6.79591 43.558 7.72407 43.558 8.83928C43.5544 9.94743 42.6035 10.8791 41.4859 10.865C40.3718 10.8544 39.4777 9.9439 39.4812 8.82164Z" fill="#EA991D"/>
<path opacity="0.51" d="M8.63057 44.8262C7.49518 44.8262 6.61171 43.9439 6.60816 42.811C6.60462 41.6746 7.51292 40.7676 8.64831 40.7747C9.76595 40.7818 10.6814 41.6852 10.6885 42.7969C10.6956 43.9121 9.76595 44.8297 8.63057 44.8262Z" fill="#EA991D"/>
<path opacity="0.51" d="M30.9978 25.8356C31.0014 29.093 28.3439 31.7575 25.0654 31.7293C21.6628 31.7011 19.1401 28.9907 19.1472 25.818C19.1543 22.5641 21.8047 19.9243 25.0867 19.9173C28.3474 19.9102 30.9907 22.557 30.9978 25.8356Z" fill="#EA991D"/>
</svg>
