<svg width="548" height="120" viewBox="0 0 548 120" fill="none" xmlns="http://www.w3.org/2000/svg">
<g clip-path="url(#clip0_7_13)">
<path d="M135.586 60.6744L154.714 18.2327H160.687L179.881 60.6744H173.548L156.459 21.6213H158.875L141.794 60.6744H135.586V60.6744ZM143.732 50.0618L145.36 45.215H169.135L170.888 50.0618H143.732Z" fill="white"/>
<path d="M193.698 60.6742V21.9246L195.208 23.5009H179.277V18.2241H214.101V23.5009H198.17L199.621 21.9246V60.6742H193.698Z" fill="white"/>
<path d="M221.458 60.6742V18.2241H226.408L245.359 50.2977H242.708L261.416 18.2241H266.366L266.425 60.6658H260.628L260.569 27.3784H261.953L245.301 55.5155H242.524L225.745 27.3784H227.255V60.6658H221.458V60.6742Z" fill="white"/>
<path d="M298.58 61.1547C295.359 61.1547 292.372 60.6068 289.621 59.5194C286.861 58.432 284.478 56.9063 282.473 54.9423C280.46 52.9783 278.891 50.6855 277.767 48.064C276.643 45.434 276.081 42.568 276.081 39.4576C276.081 36.3472 276.643 33.4728 277.767 30.8513C278.891 28.2213 280.46 25.9285 282.473 23.9729C284.487 22.0089 286.861 20.4832 289.596 19.3958C292.33 18.3084 295.325 17.7605 298.589 17.7605C301.81 17.7605 304.772 18.3 307.49 19.3705C310.208 20.441 312.582 21.9583 314.612 23.9223C316.642 25.8864 318.211 28.1792 319.319 30.8007C320.426 33.4306 320.98 36.3219 320.98 39.4745C320.98 42.627 320.426 45.5183 319.319 48.1482C318.211 50.7782 316.642 53.071 314.612 55.0266C312.582 56.9906 310.208 58.4995 307.49 59.5784C304.772 60.6237 301.802 61.1547 298.58 61.1547ZM298.58 55.7599C300.913 55.7599 303.077 55.3553 305.065 54.5461C307.054 53.7369 308.79 52.5989 310.258 51.1238C311.726 49.6487 312.876 47.9207 313.698 45.9398C314.52 43.9589 314.931 41.7925 314.931 39.4492C314.931 37.1058 314.52 34.9395 313.698 32.9586C312.876 30.9777 311.726 29.2497 310.258 27.7745C308.79 26.2994 307.062 25.1615 305.065 24.3522C303.077 23.543 300.913 23.1384 298.58 23.1384C296.206 23.1384 294.025 23.543 292.037 24.3522C290.049 25.1615 288.304 26.2994 286.819 27.7745C285.334 29.2497 284.176 30.9777 283.346 32.9586C282.523 34.9395 282.112 37.1058 282.112 39.4492C282.112 41.7925 282.523 43.9589 283.346 45.9398C284.168 47.9207 285.325 49.6487 286.819 51.1238C288.304 52.5989 290.049 53.7453 292.037 54.5461C294.025 55.3553 296.206 55.7599 298.58 55.7599Z" fill="white"/>
<path d="M349.637 61.1547C346.416 61.1547 343.454 60.6153 340.736 59.5447C338.018 58.4742 335.669 56.9569 333.673 54.9929C331.684 53.0289 330.124 50.7361 328.991 48.1146C327.867 45.4846 327.305 42.5933 327.305 39.4408C327.305 36.2882 327.867 33.3969 328.991 30.767C330.116 28.137 331.684 25.8443 333.698 23.8886C335.711 21.9246 338.077 20.4158 340.787 19.3368C343.505 18.2663 346.466 17.7268 349.688 17.7268C352.943 17.7268 355.954 18.2831 358.706 19.3958C361.458 20.5085 363.807 22.1522 365.736 24.3354L361.81 28.1539C360.199 26.4596 358.387 25.1952 356.382 24.3607C354.369 23.5346 352.221 23.1216 349.922 23.1216C347.548 23.1216 345.342 23.5262 343.312 24.3354C341.282 25.1446 339.52 26.2742 338.035 27.7324C336.55 29.1907 335.392 30.9187 334.562 32.9165C333.74 34.9142 333.329 37.089 333.329 39.4323C333.329 41.7757 333.74 43.9505 334.562 45.9482C335.384 47.946 336.542 49.674 338.035 51.1323C339.52 52.5905 341.282 53.7201 343.312 54.5293C345.342 55.3385 347.548 55.7431 349.922 55.7431C352.213 55.7431 354.369 55.3301 356.382 54.504C358.396 53.6779 360.208 52.3882 361.81 50.6518L365.736 54.4703C363.807 56.6535 361.458 58.314 358.706 59.4436C355.963 60.59 352.934 61.1547 349.637 61.1547Z" fill="white"/>
<path d="M393.806 57.8252C388.655 57.8252 384.251 57.1088 380.593 55.6758C376.936 54.2428 374.134 52.1523 372.204 49.3959C370.275 46.6479 369.31 43.3099 369.31 39.3903C369.31 35.4707 370.275 32.1326 372.204 29.3847C374.134 26.6367 376.927 24.5378 380.593 23.0795C384.251 21.6213 388.655 20.8963 393.806 20.8963C393.89 20.8963 394.041 20.8963 394.259 20.8963C394.477 20.8963 394.704 20.8963 394.922 20.8963C395.14 20.8963 395.274 20.8963 395.316 20.8963C400.467 20.8963 404.863 21.6213 408.504 23.0795C412.145 24.5378 414.93 26.6367 416.86 29.3847C418.789 32.1326 419.754 35.4707 419.754 39.3903C419.754 43.2678 418.798 46.5974 416.885 49.3622C414.972 52.1354 412.221 54.2344 408.613 55.6673C405.014 57.1003 400.66 57.8168 395.551 57.8168C395.467 57.8168 395.3 57.8168 395.04 57.8168C394.779 57.8168 394.528 57.8168 394.284 57.8168C394.041 57.8168 393.89 57.8252 393.806 57.8252ZM394.477 53.0964C394.561 53.0964 394.721 53.0964 394.956 53.0964C399.058 53.0542 402.523 52.5232 405.333 51.4864C408.152 50.458 410.291 48.9154 411.759 46.8755C413.227 44.8356 413.966 42.3153 413.966 39.3229C413.966 36.3726 413.219 33.8859 411.734 31.8629C410.249 29.8399 408.102 28.3057 405.308 27.2521C402.514 26.1984 399.1 25.6758 395.081 25.6758C395.04 25.6758 394.947 25.6758 394.813 25.6758C394.67 25.6758 394.561 25.6758 394.477 25.6758C390.333 25.6758 386.826 26.19 383.949 27.2183C381.071 28.2467 378.89 29.7724 377.397 31.7955C375.912 33.8185 375.165 36.3473 375.165 39.3734C375.165 42.3996 375.929 44.9284 377.456 46.9514C378.983 48.9744 381.189 50.5002 384.066 51.5285C386.936 52.5822 390.409 53.0964 394.477 53.0964ZM391.759 62.2506V16.6479H397.372V62.2506H391.759Z" fill="white"/>
<path d="M435.09 55.3975H459.712V60.6742H429.058V18.2241H458.873V23.5009H435.098V55.3975H435.09ZM434.544 36.5411H456.272V41.6914H434.544V36.5411Z" fill="white"/>
<path d="M469.183 60.6742V18.2241H485.66C489.359 18.2241 492.522 18.8142 495.131 19.9859C497.749 21.1575 499.754 22.8603 501.163 25.0772C502.572 27.3025 503.277 29.9493 503.277 33.0176C503.277 36.0859 502.572 38.7243 501.163 40.9327C499.754 43.1328 497.74 44.8355 495.131 46.0241C492.514 47.221 489.359 47.8111 485.66 47.8111H472.505L475.224 44.962V60.6658H469.183V60.6742ZM475.215 45.5773L472.497 42.5428H485.475C489.334 42.5428 492.262 41.7167 494.259 40.0561C496.247 38.3955 497.245 36.0522 497.245 33.026C497.245 29.9915 496.247 27.6481 494.259 25.996C492.27 24.3354 489.343 23.5093 485.475 23.5093H472.497L475.215 20.4748V45.5773Z" fill="white"/>
<path d="M503.705 60.6744L522.832 18.2327H528.806L548 60.6744H541.666L524.586 21.6213H527.002L509.922 60.6744H503.705ZM511.851 50.0618L513.479 45.215H537.254L539.007 50.0618H511.851Z" fill="white"/>
<path d="M143.598 102.509V80.3483L144.269 81.0227H135.326V78.8647H154.32V81.0227H145.41L146.048 80.3483V102.509H143.598V102.509Z" fill="white"/>
<path d="M157.281 109.227C156.45 109.227 155.662 109.092 154.907 108.823C154.152 108.553 153.514 108.148 152.977 107.609L154.085 105.822C154.529 106.252 155.024 106.58 155.544 106.816C156.073 107.052 156.66 107.17 157.306 107.17C158.086 107.17 158.766 106.951 159.336 106.513C159.907 106.075 160.452 105.299 160.964 104.203L162.105 101.599L162.373 101.228L169.638 84.7821H171.987L163.145 104.642C162.65 105.788 162.105 106.698 161.518 107.381C160.922 108.056 160.276 108.536 159.588 108.814C158.908 109.092 158.128 109.227 157.281 109.227ZM161.987 103.015L153.85 84.7737H156.341L163.539 101.051L161.987 103.015Z" fill="white"/>
<path d="M171.736 102.475L171.903 100.419C172.063 100.444 172.214 100.469 172.356 100.503C172.499 100.537 172.633 100.554 172.742 100.554C173.455 100.554 174.034 100.284 174.47 99.7443C174.907 99.2048 175.234 98.4799 175.46 97.5864C175.687 96.6844 175.838 95.6645 175.93 94.5265C176.022 93.3886 176.098 92.2506 176.165 91.0958L176.467 84.7822H189.412V102.518H187.021V86.1731L187.625 86.8811H178.019L178.59 86.1393L178.321 91.2728C178.254 92.8069 178.137 94.2652 177.969 95.6645C177.801 97.0638 177.541 98.286 177.197 99.3481C176.853 100.41 176.375 101.236 175.771 101.835C175.167 102.433 174.395 102.728 173.455 102.728C173.187 102.728 172.91 102.703 172.633 102.661C172.348 102.593 172.046 102.543 171.736 102.475Z" fill="white"/>
<path d="M203.808 91.02C206.022 91.0452 207.709 91.5341 208.866 92.5035C210.024 93.4729 210.594 94.8637 210.594 96.6929C210.594 98.5811 209.974 100.039 208.732 101.051C207.49 102.062 205.687 102.56 203.338 102.534L196.215 102.501V84.7654H198.606V90.9441L203.808 91.02ZM203.204 100.714C204.839 100.739 206.081 100.402 206.92 99.719C207.759 99.0362 208.178 98.0247 208.178 96.6929C208.178 95.3611 207.767 94.3917 206.937 93.7679C206.106 93.1526 204.865 92.8323 203.204 92.807L198.598 92.7395V100.646L203.204 100.714Z" fill="white"/>
<path d="M222.532 102.678C220.787 102.678 219.219 102.29 217.843 101.514C216.467 100.739 215.385 99.6684 214.596 98.3029C213.808 96.9373 213.422 95.3779 213.422 93.6246C213.422 91.846 213.816 90.2782 214.596 88.9295C215.376 87.5808 216.459 86.5187 217.843 85.7516C219.219 84.9845 220.787 84.6052 222.532 84.6052C224.034 84.6052 225.393 84.9003 226.601 85.4819C227.809 86.0635 228.765 86.9486 229.462 88.1203L227.683 89.3341C227.079 88.4321 226.324 87.7662 225.435 87.3448C224.537 86.9149 223.564 86.7041 222.507 86.7041C221.249 86.7041 220.116 86.9907 219.11 87.5639C218.103 88.1371 217.306 88.9463 216.719 89.9831C216.14 91.0199 215.846 92.2338 215.846 93.633C215.846 95.0323 216.14 96.2461 216.719 97.2829C217.297 98.3198 218.094 99.1205 219.11 99.7022C220.116 100.275 221.249 100.562 222.507 100.562C223.564 100.562 224.537 100.351 225.435 99.9213C226.333 99.4914 227.079 98.8424 227.683 97.9657L229.462 99.1795C228.765 100.326 227.818 101.203 226.601 101.801C225.385 102.383 224.034 102.678 222.532 102.678Z" fill="white"/>
<path d="M234.059 102.509V84.7737H236.45V102.509H234.059V102.509ZM235.703 94.6023V92.5455H241.383V94.6023H235.703ZM241.928 93.8942L239.713 93.557L246.735 84.7737H249.327L241.928 93.8942ZM247.004 102.509L239.739 93.7256L241.718 92.5455L249.822 102.509H247.004V102.509Z" fill="white"/>
<path d="M258.128 102.678C256.802 102.678 255.653 102.458 254.68 102.02C253.707 101.582 252.96 100.975 252.44 100.199C251.928 99.4239 251.668 98.5304 251.668 97.5104C251.668 96.5916 251.886 95.7487 252.322 94.99C252.759 94.2398 253.48 93.6245 254.47 93.1693C255.468 92.7057 256.802 92.4781 258.488 92.4781H264.571V94.2651H258.556C256.853 94.2651 255.67 94.5686 255.007 95.1755C254.344 95.7824 254.017 96.541 254.017 97.4345C254.017 98.4461 254.411 99.2553 255.191 99.8706C255.972 100.478 257.071 100.781 258.488 100.781C259.831 100.781 260.997 100.469 261.97 99.8538C262.943 99.2384 263.656 98.3365 264.101 97.1648L264.638 98.817C264.193 99.9886 263.413 100.924 262.297 101.624C261.207 102.324 259.806 102.678 258.128 102.678ZM264.21 102.509V98.5894L264.109 97.9487V91.3991C264.109 89.8903 263.69 88.727 262.851 87.9178C262.012 87.1086 260.762 86.704 259.101 86.704C257.96 86.704 256.869 86.8979 255.837 87.2772C254.806 87.6565 253.933 88.1707 253.212 88.7945L252.138 87.0075C253.035 86.2404 254.109 85.6503 255.368 85.2373C256.626 84.8243 257.943 84.6135 259.336 84.6135C261.626 84.6135 263.388 85.1867 264.629 86.3163C265.871 87.4542 266.492 89.1822 266.492 91.5003V102.509H264.21V102.509Z" fill="white"/>
<path d="M271.341 102.509L276.181 95.6898H278.673L273.933 102.509H271.341ZM284.252 102.509V96.1281L284.688 96.6339H278.707C276.441 96.6339 274.671 96.1365 273.396 95.1503C272.121 94.1556 271.483 92.7142 271.483 90.8261C271.483 88.803 272.163 87.2857 273.53 86.2826C274.898 85.2796 276.727 84.7822 279.009 84.7822H286.441V102.518H284.252V102.509ZM284.252 95.4116V86.1562L284.688 86.8643H279.076C277.44 86.8643 276.165 87.1762 275.259 87.8084C274.353 88.4406 273.9 89.4605 273.9 90.8851C273.9 93.5234 275.569 94.8384 278.908 94.8384H284.688L284.252 95.4116Z" fill="white"/>
<path d="M300.887 102.711C300.577 102.711 300.267 102.695 299.981 102.661C299.688 102.627 299.361 102.568 299.008 102.475L299.21 100.25C299.587 100.343 299.965 100.385 300.317 100.385C301.324 100.385 302.137 99.9888 302.758 99.188C303.371 98.3872 303.84 97.1481 304.151 95.4707C304.461 93.7932 304.663 91.6353 304.755 89.0053L305.09 78.8733H321.055V102.518H318.597V80.3484L319.235 81.0228H306.659L307.263 80.3147L306.961 88.9295C306.869 91.2897 306.701 93.338 306.458 95.0576C306.215 96.7772 305.854 98.2102 305.384 99.3481C304.914 100.486 304.31 101.329 303.572 101.877C302.834 102.433 301.945 102.711 300.887 102.711Z" fill="white"/>
<path d="M335.98 102.678C334.142 102.678 332.532 102.29 331.139 101.514C329.746 100.739 328.664 99.6684 327.876 98.3029C327.087 96.9373 326.701 95.3779 326.701 93.6246C326.701 91.8713 327.079 90.3119 327.825 88.9632C328.572 87.6145 329.604 86.544 330.921 85.7685C332.23 84.993 333.706 84.6052 335.342 84.6052C337.003 84.6052 338.471 84.9845 339.763 85.7348C341.055 86.4934 342.062 87.5471 342.808 88.9126C343.547 90.2782 343.916 91.846 343.916 93.6246C343.916 93.7342 343.907 93.8522 343.899 93.9786C343.891 94.1051 343.882 94.2315 343.882 94.3664H328.522V92.5794H342.607L341.668 93.2874C341.668 92.0062 341.391 90.8598 340.845 89.8567C340.292 88.8536 339.553 88.0697 338.614 87.5133C337.674 86.9486 336.584 86.6704 335.35 86.6704C334.142 86.6704 333.052 86.9486 332.087 87.5133C331.122 88.0781 330.376 88.862 329.839 89.8736C329.302 90.8851 329.033 92.0483 329.033 93.3549V93.7258C329.033 95.0745 329.327 96.263 329.923 97.2914C330.518 98.3197 331.349 99.1121 332.414 99.6937C333.48 100.267 334.696 100.554 336.064 100.554C337.137 100.554 338.144 100.36 339.075 99.9803C340.006 99.601 340.803 99.011 341.483 98.227L342.825 99.778C342.037 100.722 341.064 101.447 339.881 101.936C338.689 102.433 337.397 102.678 335.98 102.678Z" fill="white"/>
<path d="M351.785 102.509V86.2321L352.389 86.8727H345.09V84.7822H360.854V86.8727H353.555L354.159 86.2321V102.509H351.785Z" fill="white"/>
<path d="M364.318 102.509V84.7737H366.709V92.613H377.833V84.7737H380.224V102.509H377.833V94.6697H366.709V102.509H364.318V102.509Z" fill="white"/>
<path d="M385.501 102.509L390.342 95.6898H392.833L388.093 102.509H385.501ZM398.404 102.509V96.1281L398.84 96.6339H392.858C390.593 96.6339 388.823 96.1365 387.548 95.1503C386.273 94.1556 385.635 92.7142 385.635 90.8261C385.635 88.803 386.315 87.2857 387.682 86.2826C389.05 85.2796 390.878 84.7822 393.16 84.7822H400.593V102.518H398.404V102.509ZM398.404 95.4116V86.1562L398.84 86.8643H393.227C391.592 86.8643 390.316 87.1762 389.41 87.8084C388.504 88.4406 388.051 89.4605 388.051 90.8851C388.051 93.5234 389.721 94.8384 393.06 94.8384H398.84L398.404 95.4116Z" fill="white"/>
<path d="M405.87 102.509L410.711 95.6898H413.202L408.462 102.509H405.87ZM418.781 102.509V96.1281L419.217 96.6339H413.236C410.971 96.6339 409.201 96.1365 407.925 95.1503C406.65 94.1556 406.013 92.7142 406.013 90.8261C406.013 88.803 406.692 87.2857 408.06 86.2826C409.427 85.2796 411.256 84.7822 413.538 84.7822H420.971V102.518H418.781V102.509ZM418.781 95.4116V86.1562L419.217 86.8643H413.605C411.969 86.8643 410.694 87.1762 409.788 87.8084C408.882 88.4406 408.429 89.4605 408.429 90.8851C408.429 93.5234 410.098 94.8384 413.437 94.8384H419.217L418.781 95.4116Z" fill="white"/>
<path d="M450.945 100.343L450.341 101.017V78.8647H452.799V101.025L452.128 100.351H464.192L463.521 101.025V78.8647H465.979V102.509H437.137V78.8647H439.595V101.025L438.957 100.351H450.945V100.343Z" fill="white"/>
<path d="M473.336 102.509V84.7737H475.727V102.509H473.336V102.509ZM474.98 94.6023V92.5455H480.66V94.6023H474.98ZM481.205 93.8942L478.991 93.557L486.021 84.7737H488.605L481.205 93.8942ZM486.281 102.509L479.016 93.7256L480.996 92.5455L489.1 102.509H486.281V102.509Z" fill="white"/>
<path d="M499.494 102.678C497.791 102.678 496.264 102.29 494.905 101.514C493.546 100.739 492.48 99.6684 491.692 98.3029C490.903 96.9373 490.517 95.3779 490.517 93.6246C490.517 91.846 490.911 90.2782 491.692 88.9295C492.472 87.5808 493.537 86.5187 494.888 85.7516C496.23 84.9845 497.765 84.6052 499.494 84.6052C501.239 84.6052 502.791 84.9845 504.15 85.7516C505.509 86.5187 506.574 87.5723 507.346 88.9295C508.118 90.2866 508.504 91.846 508.504 93.6246C508.504 95.3779 508.118 96.9373 507.346 98.3029C506.574 99.6684 505.5 100.739 504.133 101.514C502.765 102.29 501.213 102.678 499.494 102.678ZM499.494 100.545C500.769 100.545 501.901 100.258 502.891 99.6853C503.873 99.1121 504.653 98.3029 505.223 97.2492C505.794 96.204 506.079 94.9902 506.079 93.6162C506.079 92.2169 505.794 91.0031 505.223 89.9663C504.653 88.9295 503.873 88.1287 502.891 87.5471C501.901 86.9739 500.785 86.6873 499.527 86.6873C498.269 86.6873 497.153 86.9739 496.163 87.5471C495.173 88.1203 494.393 88.9295 493.814 89.9663C493.227 91.0031 492.942 92.2169 492.942 93.6162C492.942 94.9902 493.235 96.204 493.814 97.2492C494.393 98.2945 495.181 99.1037 496.163 99.6853C497.145 100.258 498.26 100.545 499.494 100.545Z" fill="white"/>
<path d="M510.282 102.475L510.45 100.419C510.609 100.444 510.76 100.469 510.903 100.503C511.046 100.537 511.18 100.554 511.289 100.554C512.002 100.554 512.581 100.284 513.017 99.7443C513.453 99.2048 513.781 98.4799 514.007 97.5864C514.234 96.6844 514.385 95.6645 514.477 94.5265C514.569 93.3886 514.645 92.2506 514.712 91.0958L515.014 84.7822H527.958V102.518H525.567V86.1731L526.171 86.8811H516.557L517.128 86.1393L516.859 91.2728C516.792 92.8069 516.675 94.2652 516.507 95.6645C516.339 97.0638 516.079 98.286 515.735 99.3481C515.391 100.41 514.913 101.236 514.309 101.835C513.705 102.433 512.933 102.728 511.994 102.728C511.725 102.728 511.448 102.703 511.171 102.661C510.895 102.593 510.593 102.543 510.282 102.475Z" fill="white"/>
<path d="M539.628 102.678C538.302 102.678 537.153 102.458 536.18 102.02C535.206 101.582 534.46 100.975 533.948 100.199C533.428 99.4239 533.176 98.5304 533.176 97.5104C533.176 96.5916 533.394 95.7487 533.831 94.99C534.267 94.2398 534.988 93.6245 535.978 93.1693C536.977 92.7057 538.31 92.4781 539.997 92.4781H546.079V94.2651H540.064C538.361 94.2651 537.178 94.5686 536.515 95.1755C535.852 95.7824 535.525 96.541 535.525 97.4345C535.525 98.4461 535.92 99.2553 536.7 99.8706C537.48 100.478 538.579 100.781 539.997 100.781C541.339 100.781 542.505 100.469 543.478 99.8538C544.451 99.2384 545.164 98.3365 545.609 97.1648L546.146 98.817C545.701 99.9886 544.921 100.924 543.805 101.624C542.706 102.324 541.305 102.678 539.628 102.678ZM545.71 102.509V98.5894L545.609 97.9487V91.3991C545.609 89.8903 545.19 88.727 544.351 87.9178C543.512 87.1086 542.262 86.704 540.601 86.704C539.46 86.704 538.369 86.8979 537.337 87.2772C536.305 87.6565 535.433 88.1707 534.712 88.7945L533.638 87.0075C534.535 86.2404 535.609 85.6503 536.868 85.2373C538.126 84.8243 539.443 84.6135 540.836 84.6135C543.117 84.6135 544.888 85.1867 546.129 86.3163C547.371 87.4542 547.992 89.1822 547.992 91.5003V102.509H545.71V102.509Z" fill="white"/>
<path d="M57.1054 109.497C57.1054 107.095 57.1809 104.684 57.0886 102.29C56.9376 98.3197 56.4594 94.3832 55.2681 90.5816C54.9158 89.4605 54.4208 88.3478 53.8 87.3532C52.8688 85.8612 51.8873 85.7179 50.4444 86.7126C48.9175 87.7746 47.7179 89.1823 46.7867 90.7586C45.3269 93.2284 44.0098 95.7741 42.6592 98.3029C42.0719 99.3903 41.5602 100.52 40.9981 101.624C40.6206 102.366 39.9914 102.644 39.379 102.391C38.7246 102.121 38.5149 101.54 38.6995 100.714C39.2448 98.3535 39.8907 96.0017 40.2598 93.6162C40.5115 91.9724 40.5115 90.2529 40.3605 88.5923C40.0333 84.9592 37.7263 82.8519 34.0938 82.5906C30.0753 82.2956 26.2247 83.1722 22.4915 84.4956C18.4227 85.9286 14.4546 87.6313 10.4362 89.2161C9.93285 89.4184 9.4295 89.6375 8.91776 89.8061C8.02011 90.1011 7.28186 89.8651 6.97985 89.2329C6.69462 88.626 6.92112 87.8842 7.69293 87.4038C8.99326 86.5945 10.3355 85.8696 11.6694 85.1194C16.7533 82.2703 21.9462 79.5898 26.4596 75.8471C28.3304 74.2961 30.0502 72.5344 31.7364 70.7727C32.3656 70.1152 32.7599 69.2048 33.1206 68.345C33.5233 67.3841 33.2297 66.6929 32.3572 66.1113C31.0821 65.2683 29.6223 65.0154 28.1626 64.7541C25.4361 64.2652 22.7096 64.5097 19.9747 64.6867C18.0033 64.8131 16.0402 64.948 14.0687 65.0407C13.255 65.0829 12.7768 64.6698 12.6929 63.9955C12.609 63.2959 12.9362 62.8407 13.7164 62.5962C13.9261 62.5288 14.1442 62.4866 14.3624 62.4276C15.9731 61.9556 17.5922 61.5341 19.1862 61.0031C21.208 60.3287 23.1375 59.4437 24.8573 58.1624C26.7029 56.7884 28.1123 55.1025 27.9109 52.6496C27.8103 51.4948 27.4495 50.3063 26.9546 49.2526C25.3858 45.9567 23.0032 43.2509 20.2684 40.916C16.5855 37.7718 12.7516 34.8131 8.99326 31.7702C8.60736 31.4583 8.22984 31.138 7.91944 30.7586C7.54193 30.295 7.52515 29.7303 7.86911 29.2329C8.21306 28.7356 8.74158 28.5333 9.30366 28.7525C9.99158 29.0222 10.6543 29.3594 11.2835 29.7303C15.3523 32.1158 19.3455 34.6277 23.4814 36.8868C27.2985 38.9688 31.3002 40.6884 35.6206 41.4639C36.5518 41.6325 37.5417 41.6746 38.4813 41.5903C40.0753 41.4386 40.78 40.5872 40.4528 39.0025C40.1172 37.3672 39.6139 35.7404 38.9847 34.1978C37.6844 30.9862 35.478 28.2973 33.6575 25.3807C33.3052 24.816 32.9193 24.268 32.5586 23.7033C31.9713 22.8013 31.9881 22.127 32.5921 21.6634C33.1961 21.1998 33.7834 21.4105 34.5804 22.1523C36.4344 23.8887 38.2632 25.6673 40.2515 27.252C41.4511 28.2045 42.8605 28.9548 44.2783 29.5532C47.2816 30.8176 49.7313 30.1264 51.8034 27.5892C53.1541 25.9371 54.0265 24.032 54.748 22.0427C56.3084 17.71 57.0802 13.1919 57.7178 8.64849C58.0366 6.37257 58.305 4.07979 58.6071 1.79544C58.6406 1.5257 58.6993 1.25596 58.8 1.00308C59.0265 0.42989 59.4124 0.0337112 60.0752 0.0674286C60.7127 0.109575 61.2161 0.463607 61.258 1.09581C61.3503 2.49508 61.3587 3.9112 61.3419 5.3189C61.2497 12.526 60.8721 19.7499 62.4913 26.8559C62.8855 28.5839 63.4308 30.3119 64.1691 31.9135C65.3184 34.3917 66.7697 34.594 68.7832 32.7227C70.805 30.8514 72.315 28.5923 73.5734 26.1646C74.8486 23.7033 76.0482 21.2082 77.2898 18.73C77.424 18.4687 77.5331 18.1062 77.7596 17.9966C78.1455 17.8027 78.674 17.5836 79.0264 17.7185C79.3703 17.8449 79.664 18.3591 79.7814 18.7553C79.8737 19.0671 79.7059 19.4802 79.6052 19.8342C78.716 22.8856 77.9693 25.9708 77.9861 29.1739C77.9945 30.5226 78.1455 31.905 78.4811 33.2031C79.0096 35.2515 80.4358 36.5412 82.466 37.1228C84.924 37.8308 87.4072 37.6117 89.8736 37.1734C94.5129 36.3388 98.9088 34.7288 103.246 32.9081C105.016 32.1663 106.786 31.3993 108.565 30.6575C109.018 30.4636 109.479 30.2782 109.957 30.1686C110.595 30.0169 111.14 30.236 111.459 30.8345C111.769 31.4246 111.61 31.9809 111.14 32.3771C110.637 32.807 110.075 33.1779 109.496 33.5066C105.612 35.7151 101.669 37.8224 97.8434 40.1321C94.1605 42.3574 90.6874 44.9115 87.7596 48.1062C86.9458 48.9913 86.2243 49.9944 85.6455 51.0396C84.7562 52.6412 85.1337 53.5937 86.7948 54.3776C88.4726 55.17 90.2931 55.4903 92.1136 55.5156C94.6974 55.5577 97.2813 55.4144 99.8652 55.3217C101.317 55.2711 102.768 55.1447 104.219 55.0857C105.201 55.0435 105.721 55.4229 105.813 56.1478C105.897 56.8221 105.41 57.3026 104.496 57.5808C102.139 58.3057 99.7477 58.9295 97.4659 59.8483C95.9055 60.472 94.4122 61.374 93.0783 62.4108C90.4693 64.4338 89.8904 67.0216 91.1488 70.0983C92.0129 72.2141 93.3384 74.0264 94.8149 75.7376C97.7595 79.143 101.207 81.9837 104.748 84.7232C106.333 85.9455 107.936 87.1424 109.521 88.3647C109.832 88.6007 110.125 88.8705 110.402 89.1571C110.889 89.6544 111.023 90.2191 110.637 90.8429C110.259 91.4414 109.672 91.5257 109.068 91.3318C108.556 91.1632 108.07 90.9019 107.608 90.6238C105.469 89.3425 103.355 88.0191 101.216 86.7463C97.1387 84.3186 93.0448 81.9331 88.5649 80.2978C85.9894 79.3537 83.4139 78.4097 80.6119 78.4602C80.2009 78.4687 79.773 78.5192 79.3703 78.6288C78.414 78.8986 78.0365 79.4127 78.0029 80.4074C77.9274 82.4895 78.7495 84.327 79.5717 86.1562C81.0734 89.5027 83.3636 92.3518 85.2764 95.4369C85.4861 95.7741 85.7126 96.0944 85.9307 96.4316C86.4676 97.2661 86.4592 97.9826 85.8888 98.4293C85.3183 98.8845 84.6472 98.7075 83.9425 98.0247C82.3066 96.4484 80.721 94.7963 78.9425 93.397C77.4995 92.2675 75.8804 91.2981 74.2026 90.5563C71.2748 89.2582 68.8587 89.9241 66.7781 92.3686C65.0919 94.3411 64.1355 96.7097 63.3302 99.1458C61.9627 103.276 61.2748 107.558 60.6876 111.857C60.3772 114.116 60.1171 116.375 59.7899 118.626C59.6557 119.579 59.0685 120.084 58.3554 120.034C57.6423 119.983 57.1222 119.393 57.1222 118.449C57.1138 116.367 57.1725 114.293 57.1893 112.211C57.1977 111.318 57.1893 110.424 57.1893 109.539C57.1389 109.497 57.1222 109.497 57.1054 109.497ZM78.716 60.4046C78.9844 49.438 70.2429 40.7895 59.9997 40.5114C48.0031 40.1826 40.1927 49.202 39.6642 58.4996C38.9679 70.7895 48.2464 79.261 58.4309 79.5645C70.3436 79.9185 78.8754 70.4692 78.716 60.4046Z" fill="#FFB500"/>
<path d="M4.81549 51.166C2.15611 51.1407 -0.0502544 48.8732 0.00847006 46.2348C0.0671945 43.6133 2.24 41.4469 4.8071 41.4385C7.47487 41.4301 9.68962 43.6386 9.68962 46.2938C9.68123 48.9659 7.4497 51.1912 4.81549 51.166Z" fill="#FFB500"/>
<path d="M113.338 78.4265C110.704 78.435 108.607 76.3361 108.582 73.6724C108.565 70.9413 110.671 68.7749 113.364 68.7581C116.006 68.7497 118.196 70.9076 118.221 73.5459C118.246 76.2855 116.115 78.4181 113.338 78.4265Z" fill="#FFB500"/>
<path d="M79.3452 114.091C79.3201 116.814 77.1892 118.896 74.4459 118.862C71.8117 118.828 69.6641 116.611 69.6977 113.965C69.7312 111.292 71.9376 109.16 74.6389 109.194C77.3067 109.227 79.3704 111.377 79.3452 114.091Z" fill="#FFB500"/>
<path d="M43.7414 1.07056C46.4092 1.07056 48.5149 3.20318 48.5065 5.89214C48.4981 8.54738 46.3505 10.7221 43.7162 10.739C41.0569 10.7559 38.8757 8.55581 38.8841 5.86685C38.8841 3.13574 40.9814 1.07056 43.7414 1.07056Z" fill="#FFB500"/>
<path d="M93.179 19.3621C93.1874 16.69 95.335 14.5153 97.9608 14.5237C100.62 14.5237 102.818 16.7406 102.818 19.4043C102.81 22.0511 100.561 24.2764 97.9189 24.2427C95.2847 24.209 93.1706 22.0342 93.179 19.3621Z" fill="#FFB500"/>
<path d="M20.2348 105.358C17.5502 105.358 15.4613 103.251 15.4529 100.545C15.4445 97.8307 17.5922 95.6644 20.2767 95.6813C22.9193 95.6981 25.0837 97.856 25.1005 100.511C25.1257 103.166 22.9193 105.358 20.2348 105.358Z" fill="#FFB500"/>
<path d="M73.1203 60C73.1287 67.7803 66.8452 74.1445 59.0936 74.077C51.0483 74.0096 45.0836 67.5359 45.1004 59.9579C45.1172 52.186 51.3839 45.8809 59.1439 45.864C66.8536 45.8472 73.112 52.1692 73.1203 60Z" fill="#FFB500"/>
<path opacity="0.51" d="M57.0971 109.429C57.0971 107.027 57.1726 104.616 57.0803 102.222C56.9293 98.2521 56.4511 94.3156 55.2598 90.514C54.9075 89.3929 54.4125 88.2802 53.7917 87.2856C52.8605 85.7936 51.879 85.6503 50.436 86.6449C48.9092 87.707 47.7096 89.1147 46.7784 90.691C45.3186 93.1608 44.0015 95.7065 42.6509 98.2353C42.0636 99.3226 41.5519 100.452 40.9898 101.556C40.6123 102.298 39.9831 102.576 39.3707 102.323C38.7163 102.054 38.5066 101.472 38.6912 100.646C39.2365 98.2858 39.8824 95.9341 40.2515 93.5486C40.5032 91.9048 40.5032 90.1852 40.3522 88.5247C40.025 84.8916 37.718 82.7843 34.0855 82.523C30.067 82.228 26.2164 83.1046 22.4832 84.428C18.4144 85.861 14.4463 87.5637 10.4279 89.1484C9.92455 89.3507 9.4212 89.5699 8.90946 89.7385C8.01181 90.0335 7.27356 89.7975 6.97155 89.1653C6.68631 88.5584 6.91282 87.8166 7.68463 87.3361C8.98496 86.5269 10.3272 85.802 11.6611 85.0518C16.745 82.2027 21.9379 79.5221 26.4513 75.7795C28.3221 74.2285 30.0419 72.4668 31.7281 70.7051C32.3573 70.0476 32.7516 69.1372 33.1123 68.2774C33.515 67.3165 33.2214 66.6253 32.3489 66.0436C31.0738 65.2007 29.614 64.9478 28.1543 64.6865C25.4278 64.1976 22.7013 64.4421 19.9664 64.6191C17.995 64.7455 16.0319 64.8804 14.0604 64.9731C13.2467 65.0153 12.7685 64.6022 12.6846 63.9279C12.6007 63.2282 12.9279 62.7731 13.7081 62.5286C13.9178 62.4612 14.1359 62.419 14.3541 62.36C15.9648 61.888 17.5839 61.4665 19.1779 60.9355C21.1997 60.2611 23.1292 59.376 24.849 58.0948C26.6946 56.7208 28.104 55.0349 27.9026 52.582C27.802 51.4272 27.4412 50.2386 26.9463 49.185C25.3775 45.8891 22.9949 43.1833 20.2601 40.8484C16.5772 37.7042 12.7433 34.7455 8.98496 31.7025C8.59905 31.3906 8.22154 31.0703 7.91114 30.691C7.53362 30.2274 7.51685 29.6626 7.8608 29.1653C8.20476 28.668 8.73328 28.4657 9.29536 28.6848C9.98327 28.9546 10.646 29.2917 11.2752 29.6626C15.344 32.0481 19.3372 34.5601 23.4731 36.8191C27.2902 38.9012 31.2919 40.6208 35.6123 41.3963C36.5435 41.5649 37.5334 41.607 38.473 41.5227C40.067 41.371 40.7717 40.5196 40.4445 38.9349C40.1089 37.2996 39.6056 35.6727 38.9764 34.1302C37.6761 30.9186 35.4697 28.2296 33.6492 25.3131C33.2969 24.7483 32.911 24.2004 32.5503 23.6357C31.963 22.7337 31.9798 22.0594 32.5838 21.5958C33.1878 21.1321 33.7751 21.3429 34.5721 22.0847C36.4261 23.8211 38.2549 25.5997 40.2432 27.1844C41.4428 28.1369 42.8522 28.8871 44.27 29.4856C47.2733 30.75 49.723 30.0588 51.7951 27.5216C53.1458 25.8694 54.0182 23.9644 54.7397 21.9751C56.3001 17.6424 57.0719 13.1243 57.7095 8.58086C58.0283 6.30494 58.2967 4.01216 58.5988 1.72782C58.6323 1.45808 58.691 1.18834 58.7917 0.935458C59.0182 0.362263 59.4041 -0.0339157 60.0669 -0.000198372C60.7044 0.0419483 61.2078 0.39598 61.2497 1.02818C61.342 2.42745 61.3504 3.84358 61.3336 5.25128C61.2414 12.4584 60.8638 19.6823 62.483 26.7882C62.8773 28.5162 63.4226 30.2443 64.1608 31.8458C65.3101 34.3241 66.7615 34.5264 68.7749 32.655C70.7967 30.7837 72.3067 28.5247 73.5651 26.097C74.8403 23.6357 76.0399 21.1406 77.2815 18.6623C77.4158 18.401 77.5248 18.0386 77.7513 17.929C78.1372 17.7351 78.6657 17.516 79.0181 17.6508C79.3621 17.7773 79.6557 18.2915 79.7731 18.6876C79.8654 18.9995 79.6976 19.4126 79.5969 19.7666C78.7077 22.818 77.9611 25.9031 77.9778 29.1063C77.9862 30.455 78.1372 31.8374 78.4728 33.1355C79.0013 35.1838 80.4275 36.4735 82.4577 37.0552C84.9157 37.7632 87.3989 37.5441 89.8653 37.1057C94.5046 36.2712 98.9005 34.6612 103.238 32.8405C105.008 32.0987 106.778 31.3316 108.557 30.5899C109.01 30.396 109.471 30.2105 109.949 30.101C110.587 29.9492 111.132 30.1684 111.451 30.7669C111.761 31.3569 111.602 31.9133 111.132 32.3094C110.629 32.7393 110.067 33.1102 109.488 33.439C105.603 35.6475 101.661 37.7548 97.8351 40.0644C94.1522 42.2898 90.6791 44.8439 87.7513 48.0386C86.9375 48.9237 86.216 49.9268 85.6372 50.972C84.7479 52.5736 85.1254 53.5261 86.7865 54.31C88.4643 55.1024 90.2848 55.4227 92.1053 55.448C94.6891 55.4901 97.273 55.3468 99.8569 55.2541C101.308 55.2035 102.76 55.0771 104.211 55.0181C105.192 54.9759 105.713 55.3552 105.805 56.0802C105.889 56.7545 105.402 57.235 104.488 57.5132C102.13 58.2381 99.7394 58.8618 97.4576 59.7806C95.8972 60.4044 94.4039 61.3063 93.07 62.3432C90.461 64.3662 89.8821 66.954 91.1405 70.0307C92.0046 72.1465 93.3301 73.9588 94.8066 75.6699C97.7512 79.0754 101.199 81.9161 104.739 84.6556C106.325 85.8779 107.927 87.0748 109.513 88.2971C109.823 88.5331 110.117 88.8028 110.394 89.0894C110.88 89.5868 111.015 90.1515 110.629 90.7753C110.251 91.3738 109.664 91.4581 109.06 91.2642C108.548 91.0956 108.062 90.8343 107.6 90.5561C105.461 89.2749 103.347 87.9515 101.208 86.6786C97.1304 84.251 93.0365 81.8655 88.5566 80.2302C85.9811 79.2861 83.4057 78.342 80.6037 78.3926C80.1926 78.401 79.7647 78.4516 79.362 78.5612C78.4057 78.8309 78.0282 79.3451 77.9946 80.3398C77.9191 82.4218 78.7412 84.2594 79.5634 86.0886C81.0651 89.435 83.3553 92.2842 85.2681 95.3693C85.4778 95.7065 85.7043 96.0268 85.9224 96.364C86.4593 97.1985 86.4509 97.915 85.8805 98.3617C85.31 98.8169 84.6389 98.6399 83.9342 97.9571C82.2983 96.3808 80.7127 94.7287 78.9342 93.3294C77.4913 92.1999 75.8721 91.2305 74.1943 90.4887C71.2665 89.1906 68.8504 89.8565 66.7698 92.301C65.0836 94.2735 64.1272 96.6421 63.3219 99.0782C61.9544 103.209 61.2665 107.491 60.6793 111.79C60.3689 114.049 60.1088 116.308 59.7816 118.558C59.6474 119.511 59.0602 120.017 58.3471 119.966C57.634 119.916 57.1139 119.325 57.1139 118.381C57.1055 116.299 57.1642 114.226 57.181 112.144C57.1894 111.25 57.181 110.357 57.181 109.472C57.139 109.429 57.1139 109.429 57.0971 109.429ZM78.7077 60.337C78.9761 49.3704 70.2346 40.7219 59.9914 40.4437C48.0032 40.1234 40.1844 49.1428 39.6559 58.4319C38.9596 70.7219 48.2465 79.1934 58.431 79.4969C70.3436 79.8593 78.8671 70.41 78.7077 60.337Z" fill="#EA991D"/>
<path opacity="0.51" d="M4.80694 51.0986C2.14756 51.0733 -0.0587993 48.8058 -7.48601e-05 46.1674C0.0586496 43.5459 2.23145 41.3795 4.79855 41.3711C7.46632 41.3627 9.68107 43.5712 9.68107 46.2264C9.68107 48.8985 7.44954 51.1323 4.80694 51.0986Z" fill="#EA991D"/>
<path opacity="0.51" d="M113.338 78.3674C110.704 78.3759 108.607 76.277 108.582 73.6133C108.565 70.8822 110.671 68.7159 113.364 68.699C116.006 68.6906 118.196 70.8485 118.221 73.4869C118.246 76.2264 116.115 78.3506 113.338 78.3674Z" fill="#EA991D"/>
<path opacity="0.51" d="M79.3452 114.032C79.3201 116.755 77.1892 118.837 74.4459 118.803C71.8117 118.769 69.6641 116.552 69.6977 113.905C69.7312 111.233 71.9376 109.101 74.6389 109.134C77.2983 109.168 79.362 111.318 79.3452 114.032Z" fill="#EA991D"/>
<path opacity="0.51" d="M43.7329 1.01147C46.4006 1.01147 48.5063 3.1441 48.4979 5.83305C48.4895 8.48829 46.3419 10.6631 43.7077 10.6799C41.0483 10.6968 38.8671 8.49672 38.8755 5.80777C38.8839 3.07666 40.9812 1.01147 43.7329 1.01147Z" fill="#EA991D"/>
<path opacity="0.51" d="M93.179 19.2948C93.1874 16.6227 95.335 14.4479 97.9608 14.4563C100.62 14.4563 102.818 16.6732 102.818 19.3369C102.81 21.9837 100.561 24.2091 97.9189 24.1753C95.2847 24.1501 93.1706 21.9753 93.179 19.2948Z" fill="#EA991D"/>
<path opacity="0.51" d="M20.2348 105.291C17.5502 105.291 15.4613 103.183 15.4529 100.478C15.4445 97.7633 17.5922 95.597 20.2767 95.6139C22.9193 95.6307 25.0837 97.7886 25.1005 100.444C25.1173 103.108 22.9193 105.299 20.2348 105.291Z" fill="#EA991D"/>
<path opacity="0.51" d="M73.1203 59.9324C73.1287 67.7127 66.8452 74.0768 59.0936 74.0094C51.0483 73.942 45.0836 67.4682 45.1004 59.8903C45.1172 52.1184 51.3839 45.8133 59.1439 45.7964C66.8536 45.7796 73.1036 52.1016 73.1203 59.9324Z" fill="#EA991D"/>
</g>
<defs>
<clipPath id="clip0_7_13">
<rect width="548" height="120" fill="white"/>
</clipPath>
</defs>
</svg>
